<?xml version="1.0" encoding="utf-8"?>
<!-- Generator: Adobe Illustrator 19.0.0, SVG Export Plug-In . SVG Version: 6.00 Build 0)  -->
<svg version="1.1" id="Layer_1" xmlns="http://www.w3.org/2000/svg" xmlns:xlink="http://www.w3.org/1999/xlink" x="0px" y="0px"
	 viewBox="0 0 500 500" style="enable-background:new 0 0 500 500;" xml:space="preserve">
<style type="text/css">
	.st0{fill:#E21D38;}
	.st1{fill:#FFFFFF;}
	.st2{font-family:'ArialMT';}
	.st3{font-size:16.8708px;}
</style>
<g id="XMLID_1_">
	<circle id="XMLID_3_" class="st0" cx="237.7" cy="250" r="170.2"/>
	<path id="XMLID_6_" class="st1" d="M233.8,266.8c83.6,6.9,115.8,29.9,114.3,61.3c-1.5,16.9-17.6,33-38.3,34.5
		c-24.5,1.5-36-8.4-42.9-19.2c-6.1-10-13-19.9-19.9-30.7c-1.5-3.1-4.6-0.8-6.9,0.8c-5.4,4.6-10,10-14.6,14.6
		c-3.1,3.1-2.3,5.4-1.5,7.7c4.6,10.7,9.2,21.5,13.8,31.4c7.7,4.6,42.2,10.7,67.5,8.4c17.6-1.5,39.1-8.4,57.5-21.5
		c17.6-13.8,30.7-32.2,33-62.1c0.8-18.4-2.3-37.6-18.4-55.2c-16.1-17.6-43.7-32.2-99.7-36c3.1-9.2,5.4-17.6,8.4-26.1
		c33.7,1.5,63.6,3.8,89,6.9c2.3-10,3.1-19.2,5.4-28.4l-6.9-8.4c-13-1.5-25.3-4.6-39.1-6.1c-17.6-2.3-36-3.8-56-4.6
		C265.3,170.9,249.9,217.7,233.8,266.8 M211.6,123.4c-6.1,0-14.6,1.5-28.4,4.6c-29.9,8.4-66.7,29.1-70.6,63.6
		c-0.8,5.4-0.8,11.5-1.5,16.9c-8.4,0.8-16.1,1.5-23.8,2.3c-0.8,6.9-0.8,13-1.5,19.9c7.7-0.8,15.3-0.8,23.8-1.5
		c-1.5,36,0,72.1,3.1,105.8c0.8,5.4,0.8,10,0.8,13c-0.8,3.1-6.1,4.6-13.8,4.6l10,12.3c29.1,5.4,65.9,9.2,105.1,10
		c0-3.8,0-7.7,0-11.5c-23-1.5-33.7-4.6-35.3-9.2c-1.5-3.8-1.5-9.2-2.3-14.6c-1.5-35.3-2.3-73.6-1.5-112.7c13,0,26.1,0,39.1-0.8
		c6.9-3.1,13-6.1,19.2-9.2c0-4.6,0-9.2,0-13c-19.9,0-39.1,0.8-58.3,0.8c0.8-16.1,1.5-31.4,2.3-46c0.8-10,7.7-16.9,13.8-16.9
		c10.7-0.8,20.7,3.8,30.7,8.4c5.4,2.3,10.7,5.4,16.1,7.7c2.3,0.8,5.4,1.5,7.7-0.8c3.1-3.8,6.1-7.7,9.2-10.7c1.5-2.3,0.8-3.8,0-4.6
		c-6.9-5.4-13-10-19.9-15.3c-3.8-3.1-10.7-3.1-16.9-3.1C216.2,122.6,213.9,123.4,211.6,123.4"/>
	<g id="XMLID_2_">
		<g id="XMLID_8_">
			<text id="XMLID_33_" transform="matrix(1 0 0 1 414.0859 361.5556)" class="st0 st2 st3">R</text>
		</g>
	</g>
	<path id="XMLID_7_" class="st0" d="M419.7,343.9v1.1c5.9,0,10.7,4.8,10.7,10.7c0,5.9-4.8,10.7-10.7,10.7c-5.9,0-10.7-4.8-10.7-10.7
		c0-5.9,4.8-10.7,10.7-10.7V343.9v-1.1c-7.1,0-12.8,5.7-12.8,12.8c0,7.1,5.7,12.8,12.8,12.8c7.1,0,12.8-5.7,12.8-12.8
		c0-7.1-5.7-12.8-12.8-12.8V343.9z"/>
</g>
</svg>
